HIERARCHY
ROOT Hips
{
	OFFSET 0.00000 0.00000 0.00000
	CHANNELS 6 Xposition Yposition Zposition Zrotation Yrotation Xrotation 
	JOINT LHipJoint
	{
		OFFSET 0 0 0
		CHANNELS 3 Zrotation Yrotation Xrotation
		JOINT LeftUpLeg
		{
			OFFSET 3.13874 -1.57224 1.49786
			CHANNELS 3 Zrotation Yrotation Xrotation
			JOINT LeftLeg
			{
				OFFSET 2.10955 -5.79594 0.00000
				CHANNELS 3 Zrotation Yrotation Xrotation
				JOINT LeftFoot
				{
					OFFSET 2.41843 -6.64458 0.00000
					CHANNELS 3 Zrotation Yrotation Xrotation
					JOINT LeftToeBase
					{
						OFFSET 0.04713 -0.12948 1.66229
						CHANNELS 3 Zrotation Yrotation Xrotation
						End Site
						{
							OFFSET 0.00000 -0.00000 0.85167
						}
					}
				}
			}
		}
	}
	JOINT RHipJoint
	{
		OFFSET 0 0 0
		CHANNELS 3 Zrotation Yrotation Xrotation
		JOINT RightUpLeg
		{
			OFFSET -3.13988 -1.57224 1.49786
			CHANNELS 3 Zrotation Yrotation Xrotation
			JOINT RightLeg
			{
				OFFSET -2.15006 -5.90725 0.00000
				CHANNELS 3 Zrotation Yrotation Xrotation
				JOINT RightFoot
				{
					OFFSET -2.34496 -6.44273 0.00000
					CHANNELS 3 Zrotation Yrotation Xrotation
					JOINT RightToeBase
					{
						OFFSET -0.08699 -0.23900 1.55223
						CHANNELS 3 Zrotation Yrotation Xrotation
						End Site
						{
							OFFSET -0.00000 -0.00000 0.80281
						}
					}
				}
			}
		}
	}
	JOINT LowerBack
	{
		OFFSET 0 0 0
		CHANNELS 3 Zrotation Yrotation Xrotation
		JOINT Spine
		{
			OFFSET 0.01292 1.96517 -0.16495
			CHANNELS 3 Zrotation Yrotation Xrotation
			JOINT Spine1
			{
				OFFSET 0.02122 1.88666 0.19706
				CHANNELS 3 Zrotation Yrotation Xrotation
				JOINT Neck
				{
					OFFSET 0 0 0
					CHANNELS 3 Zrotation Yrotation Xrotation
					JOINT Neck1
					{
						OFFSET -0.01683 1.81591 0.07903
						CHANNELS 3 Zrotation Yrotation Xrotation
						JOINT Head
						{
							OFFSET 0.00815 1.74013 -0.47700
							CHANNELS 3 Zrotation Yrotation Xrotation
							End Site
							{
								OFFSET -0.00204 1.83225 -0.16933
							}
						}
					}
				}
				JOINT LeftShoulder
				{
					OFFSET 0 0 0
					CHANNELS 3 Zrotation Yrotation Xrotation
					JOINT LeftArm
					{
						OFFSET 3.38482 1.41533 0.19802
						CHANNELS 3 Zrotation Yrotation Xrotation
						JOINT LeftForeArm
						{
							OFFSET 4.32712 -0.00000 0.00000
							CHANNELS 3 Zrotation Yrotation Xrotation
							JOINT LeftHand
							{
								OFFSET 3.28587 -0.00000 -0.00000
								CHANNELS 3 Zrotation Yrotation Xrotation
								JOINT LeftFingerBase
								{
									OFFSET 0 0 0
									CHANNELS 3 Zrotation Yrotation Xrotation
									JOINT LeftHandIndex1
									{
										OFFSET 0.43316 -0.00000 -0.00000
										CHANNELS 3 Zrotation Yrotation Xrotation
										End Site
										{
											OFFSET 0.34922 -0.00000 -0.00000
										}
									}
								}
								JOINT LThumb
								{
									OFFSET 0 0 0
									CHANNELS 3 Zrotation Yrotation Xrotation
									End Site
									{
										OFFSET 0.35456 -0.00000 0.35456
									}
								}
							}
						}
					}
				}
				JOINT RightShoulder
				{
					OFFSET 0 0 0
					CHANNELS 3 Zrotation Yrotation Xrotation
					JOINT RightArm
					{
						OFFSET -3.09725 1.62858 -0.14144
						CHANNELS 3 Zrotation Yrotation Xrotation
						JOINT RightForeArm
						{
							OFFSET -4.29104 -0.00000 0.00000
							CHANNELS 3 Zrotation Yrotation Xrotation
							JOINT RightHand
							{
								OFFSET -3.22720 -0.00000 -0.00000
								CHANNELS 3 Zrotation Yrotation Xrotation
								JOINT RightFingerBase
								{
									OFFSET 0 0 0
									CHANNELS 3 Zrotation Yrotation Xrotation
									JOINT RightHandIndex1
									{
										OFFSET -0.54362 -0.00000 -0.00000
										CHANNELS 3 Zrotation Yrotation Xrotation
										End Site
										{
											OFFSET -0.43828 -0.00000 -0.00000
										}
									}
								}
								JOINT RThumb
								{
									OFFSET 0 0 0
									CHANNELS 3 Zrotation Yrotation Xrotation
									End Site
									{
										OFFSET -0.44497 -0.00000 0.44497
									}
								}
							}
						}
					}
				}
			}
		}
	}
}
MOTION
Frames: 5
Frame Time: 0.0588235
0.00 0.00 0.00 -58.0640 -93.1358 67.5083 0.0000 0.0000 0.0000 -26.0646 -23.9801 -22.7651 1.0844 6.6185 18.5900 -0.0232 -3.4724 -1.0557 0.0500 -1.4431 -3.9688 0.0000 0.0000 0.0000 32.0702 12.6318 16.9039 -0.0233 0.9844 -2.7060 -8.3775 -12.4238 -59.0756 -1.1268 -6.7424 18.9544 3.6030 4.0518 9.8506 4.7558 6.5166 -9.7033 1.8842 2.8229 -16.7418 -5.4079 -3.9231 -16.6559 -8.9834 -2.1163 24.2091 -2.6502 -2.7576 10.5684 0.0000 0.0000 0.0000 -82.4209 21.9619 17.0947 26.3399 -37.5424 -9.0940 -0.0000 -0.0000 3.5164 32.5760 25.0708 15.1491 -7.1250 0.0000 -0.0000 3.4785 58.9834 1.1896 0.0000 0.0000 0.0000 67.1691 34.6388 22.4392 -47.6783 52.0151 -24.3319 0.0000 -0.0000 -72.7610 -15.3291 -24.4577 6.4748 7.1250 -0.0000 -0.0000 14.9518 -54.6015 -3.5871
0.00 0.00 0.00 -176.7990 -100.5710 185.6630 0.0000 0.0000 0.0000 -26.3148 -26.5125 -20.5020 1.1187 6.7190 18.8856 0.0790 0.3873 5.1831 0.0760 -1.7783 -4.8934 0.0000 0.0000 0.0000 33.9774 5.5961 16.4717 -0.0033 0.3737 -1.0268 -6.7850 -14.4494 -54.7670 -0.1045 -2.0845 5.7391 0.7001 2.9436 6.9031 3.4255 4.2791 -10.9230 2.6289 2.0644 -16.3560 -4.9455 -5.7879 -20.6816 -5.5453 -5.2423 22.0871 -1.9751 -3.5895 10.5224 -0.0000 0.0000 0.0000 -81.7446 19.3196 19.7361 31.9693 -42.5227 -12.7201 -0.0000 -0.0000 2.5609 34.4074 23.9400 15.5317 -7.1250 0.0000 -0.0000 5.8703 58.1698 1.8957 -0.0000 0.0000 0.0000 54.8303 39.6850 20.1416 -80.6808 59.6693 -51.9383 0.0000 -0.0000 -58.3331 -28.1960 -21.8661 11.2915 7.1250 -0.0000 -0.0000 0.6545 -54.4603 -0.1521
0.00 0.00 0.00 -179.9760 -98.7995 190.6290 0.0000 0.0000 0.0000 -23.5753 -28.2756 -21.4322 0.8380 5.8393 16.3189 0.0032 -0.9788 1.8442 0.0649 -1.6431 -4.5204 0.0000 0.0000 0.0000 35.6058 10.1327 17.5540 -0.0510 1.4570 -4.0073 -7.0559 -15.2371 -55.9993 -0.1150 -2.1860 6.0199 -0.2647 3.2335 6.6322 2.2872 4.3979 -10.9381 1.8615 2.1475 -16.1644 -5.7327 -5.8708 -23.5505 -2.4424 -5.5922 22.7433 -0.8988 -3.4028 11.4125 0.0000 0.0000 0.0000 -80.7321 21.8585 17.9842 24.6016 -35.7940 -8.0558 -0.0000 -0.0000 3.4505 33.0580 24.3894 15.0433 -7.1250 0.0000 -0.0000 4.1968 58.3426 1.3712 0.0000 0.0000 0.0000 64.8999 15.0725 38.3071 -72.4219 58.7997 -44.8383 0.0000 -0.0000 -44.4776 -26.7837 -25.9095 12.4382 7.1250 -0.0000 -0.0000 3.4688 -58.4994 -1.1460
0.00 0.00 0.00 -208.9660 -92.7172 220.8480 0.0000 0.0000 0.0000 -17.9297 -30.0385 -23.0129 0.5786 4.8709 13.5408 0.0676 -5.6640 -5.7152 0.0602 -1.5831 -4.3547 0.0000 0.0000 0.0000 42.5369 25.3269 24.9975 -0.1666 2.6299 -7.2501 -9.8760 -18.3848 -65.5253 -1.2406 -7.0628 19.9015 0.4905 3.7156 6.7664 1.7639 5.0929 -10.6924 0.7098 2.3362 -15.8388 -3.9748 -3.9909 -22.9652 -1.6902 -3.8327 22.8425 -0.5969 -2.3579 11.2771 -0.0000 -0.0000 0.0000 -80.8124 23.4626 8.9407 17.3801 -27.3561 -4.2605 -0.0000 -0.0000 7.6522 32.8361 24.3982 14.9267 -7.1250 0.0000 -0.0000 3.9345 58.2979 1.2811 -0.0000 -0.0000 0.0000 67.9217 -10.8033 49.0472 -53.0785 54.1641 -28.6517 0.0000 -0.0000 -36.4760 -23.8709 -28.4512 11.9051 7.1250 -0.0000 -0.0000 7.9374 -60.4537 -3.0022
0.00 0.00 0.00 -332.2870 -99.8171 343.8570 0.0000 0.0000 0.0000 -5.6828 -31.9944 -21.8560 0.1461 2.4630 6.7871 1.3699 -11.8113 -21.3001 0.0239 -0.9978 -2.7426 0.0000 0.0000 0.0000 49.1709 31.9891 29.6959 -0.5834 4.8905 -13.5966 -7.7138 -19.2555 -59.8147 -2.2194 -9.3088 26.7663 3.1740 3.5147 6.7186 2.1959 5.1822 -10.5643 -0.2894 2.0782 -15.4419 0.4356 0.3668 -20.9191 -1.0844 0.4004 26.8911 -0.4463 -0.0474 12.3869 0.0000 0.0000 0.0000 -78.3812 18.0937 18.9218 26.1680 -37.3741 -8.9894 -0.0000 -0.0000 0.7391 34.1959 25.3094 16.1980 -7.1250 0.0000 -0.0000 5.3719 59.6584 1.9258 0.0000 0.0000 0.0000 72.8527 -18.7390 43.2112 -20.9265 31.7425 -6.0112 0.0000 -0.0000 -24.2398 -21.4603 -26.6482 9.9993 7.1250 -0.0000 -0.0000 9.6706 -58.0512 -3.1074
